<?xml version="1.0" encoding="iso-8859-1"?>
<!-- Generator: Adobe Illustrator 18.1.1, SVG Export Plug-In . SVG Version: 6.00 Build 0)  -->
<svg version="1.1" id="Capa_1" xmlns="http://www.w3.org/2000/svg" xmlns:xlink="http://www.w3.org/1999/xlink" x="0px" y="0px"
	 viewBox="0 0 17.231 17.231" style="enable-background:new 0 0 17.231 17.231;" xml:space="preserve">
<g>
	<g>
		<path style="fill:#030104;" d="M5.488,5.314c0.044,0.27,0.148,0.44,0.25,0.547c0.244,1.623,1.602,3.13,2.843,3.13
			c1.446,0,2.764-1.631,3.02-3.127c0.104-0.106,0.209-0.278,0.255-0.55c0.083-0.304,0.188-0.833,0.002-1.08
			c-0.01-0.012-0.021-0.024-0.03-0.036c0.175-0.639,0.396-1.958-0.395-2.858c-0.07-0.09-0.514-0.62-1.462-0.899L9.519,0.285
			c-0.745-0.23-1.215-0.282-1.234-0.284c-0.033-0.003-0.069,0-0.102,0.009C8.157,0.017,8.069,0.041,7.999,0.031
			C7.821,0.006,7.554,0.097,7.505,0.115C7.444,0.139,6,0.718,5.561,2.064c-0.04,0.11-0.215,0.682,0.017,2.084
			C5.544,4.171,5.513,4.201,5.486,4.236C5.299,4.482,5.405,5.01,5.488,5.314z M6.055,2.256C6.058,2.249,6.06,2.242,6.063,2.234
			C6.42,1.125,7.687,0.613,7.695,0.609c0.059-0.022,0.171-0.054,0.231-0.054C8.051,0.572,8.194,0.55,8.272,0.532
			C8.399,0.55,8.795,0.615,9.355,0.787L9.81,0.943c0.845,0.25,1.203,0.717,1.205,0.721c0.005,0.007,0.011,0.014,0.017,0.02
			c0.732,0.826,0.354,2.191,0.221,2.589c-0.031,0.094-0.008,0.196,0.061,0.267c0.034,0.036,0.076,0.06,0.122,0.073
			c0.001,0.129-0.035,0.367-0.093,0.574c-0.003,0.01-0.005,0.02-0.007,0.03c-0.022,0.146-0.071,0.252-0.138,0.301
			c-0.057,0.042-0.095,0.105-0.104,0.175c-0.177,1.254-1.337,2.77-2.512,2.77c-0.988,0-2.165-1.396-2.332-2.765
			C6.241,5.627,6.204,5.562,6.146,5.519C6.079,5.469,6.03,5.361,6.007,5.217c-0.001-0.01-0.004-0.021-0.006-0.031
			C5.947,4.994,5.912,4.773,5.909,4.64c0.05-0.005,0.099-0.022,0.141-0.055c0.079-0.061,0.116-0.16,0.098-0.258
			C5.858,2.805,6.055,2.256,6.055,2.256z"/>
		<path style="fill:#030104;" d="M14.206,10.178c0,0-0.295-0.403-0.994-0.67c0,0-0.058-0.018-0.148-0.047
			c-0.621-0.292-1.212-0.479-1.212-0.479c-0.127-0.045-0.237-0.089-0.339-0.133c-0.421-0.209-0.772-0.444-0.846-0.665l0.316,2.537
			l-2.294,5.895l-2.166-5.775L6.567,8.18C6.371,8.794,4.021,9.508,4.021,9.508c-0.699,0.268-0.994,0.67-0.994,0.67
			c-1.033,1.533-1.155,4.942-1.155,4.942c0.014,0.779,0.35,0.861,0.35,0.861c2.375,1.059,6.104,1.248,6.104,1.248
			c0.201,0.004,0.389-0.006,0.575-0.018l0.005,0.02c0,0,3.729-0.189,6.104-1.248c0,0,0.337-0.082,0.35-0.861
			C15.36,15.121,15.239,11.71,14.206,10.178z"/>
		<path style="fill:#030104;" d="M10.587,8.285c0.027-0.034,0.054-0.065,0.08-0.101c-0.005-0.022-0.006-0.034-0.006-0.034
			C10.636,8.198,10.611,8.238,10.587,8.285z"/>
		<path style="fill:#030104;" d="M6.579,8.175L6.573,8.151L6.568,8.179c0.001-0.005,0.006-0.01,0.007-0.015
			C6.575,8.164,6.577,8.168,6.579,8.175z"/>
		<path style="fill:#030104;" d="M7.691,9.253l1.018,1.557l1.018-1.557C8.604,9.732,7.691,9.253,7.691,9.253z"/>
		<polygon style="fill:#030104;" points="8.709,16.046 9.487,11.318 8.709,10.81 7.93,11.318 		"/>
	</g>
</g>
<g>
</g>
<g>
</g>
<g>
</g>
<g>
</g>
<g>
</g>
<g>
</g>
<g>
</g>
<g>
</g>
<g>
</g>
<g>
</g>
<g>
</g>
<g>
</g>
<g>
</g>
<g>
</g>
<g>
</g>
</svg>
