<?xml version="1.0" standalone="no"?>
<!DOCTYPE svg PUBLIC "-//W3C//DTD SVG 20010904//EN"
 "http://www.w3.org/TR/2001/REC-SVG-20010904/DTD/svg10.dtd">
<svg version="1.0" xmlns="http://www.w3.org/2000/svg"
 width="500.000000pt" height="500.000000pt" viewBox="0 0 500.000000 500.000000"
 preserveAspectRatio="xMidYMid meet">
<metadata>
Created by potrace 1.11, written by Peter Selinger 2001-2013
</metadata>
<g transform="translate(0.000000,500.000000) scale(0.100000,-0.100000)"
fill="#000000" stroke="none">
<path d="M2470 4548 l0 -53 -148 -92 c-82 -51 -151 -93 -155 -93 -4 0 -7 10
-8 23 0 12 -5 31 -10 42 -6 15 -8 6 -6 -32 l2 -52 -125 -79 -125 -80 -15 32
c-18 40 -19 40 -26 34 -3 -3 1 -22 9 -41 l15 -35 -121 -76 -121 -76 -20 33
c-26 42 -25 41 -32 34 -4 -3 4 -22 15 -41 l22 -35 -73 -47 c-40 -25 -93 -59
-118 -75 l-45 -28 -32 31 c-39 38 -45 26 -7 -13 l25 -27 -118 -74 c-65 -41
-124 -78 -130 -82 -8 -4 -27 4 -46 18 -46 36 -60 32 -18 -4 19 -16 33 -31 30
-34 -2 -2 -30 -20 -61 -40 l-58 -37 0 -94 c0 -52 -2 -95 -5 -95 -4 0 -20 7
-36 16 -17 8 -33 13 -36 10 -3 -2 13 -14 36 -26 l41 -20 0 -150 0 -150 -40 6
c-52 8 -52 -2 0 -16 l40 -11 0 -134 0 -134 -43 -3 -42 -4 43 -8 42 -9 0 -128
c0 -142 7 -127 -65 -142 -11 -3 -1 -5 23 -6 l43 -1 -3 -137 -3 -137 -32 -8
c-18 -5 -33 -13 -33 -18 0 -5 13 -5 32 1 18 5 34 9 35 9 2 0 3 -67 3 -150 l0
-150 -42 -21 c-24 -12 -38 -24 -31 -26 6 -2 25 3 42 12 l31 16 0 -95 0 -95 58
-37 c31 -20 59 -38 61 -40 3 -3 -11 -18 -30 -34 -42 -36 -26 -40 21 -5 30 22
36 23 54 11 12 -7 70 -44 129 -81 l108 -68 -26 -27 c-37 -38 -31 -49 8 -13
l32 31 118 -75 118 -75 -21 -35 c-22 -38 -24 -43 -12 -43 4 0 16 14 25 30 10
17 22 30 28 30 5 0 60 -32 123 -72 l113 -72 -14 -34 c-8 -19 -12 -39 -10 -45
2 -7 11 5 20 26 9 20 19 37 23 37 4 0 62 -35 130 -78 l122 -77 -4 -50 c-3 -36
-2 -45 5 -30 5 11 10 30 10 43 1 12 4 22 9 22 4 0 72 -42 152 -94 l145 -93 3
-52 c4 -64 22 -58 22 8 l0 47 142 90 c78 49 145 90 149 92 4 2 10 -15 14 -37
4 -23 11 -41 16 -41 5 0 7 10 5 23 -16 70 -18 66 109 148 66 43 125 78 130 78
6 1 18 -16 27 -37 13 -27 17 -30 14 -12 -3 14 -7 35 -11 46 -6 19 8 31 112 97
l118 75 19 -32 c26 -41 25 -40 32 -33 4 3 -3 21 -15 40 l-21 34 119 76 119 75
28 -29 c15 -16 32 -29 38 -29 5 0 -3 13 -18 29 -16 16 -25 34 -22 39 3 6 60
45 127 86 l121 76 30 -25 c16 -14 35 -25 41 -25 7 1 -3 14 -22 30 -19 16 -33
31 -30 33 2 1 30 19 62 40 l57 37 0 95 0 96 31 -16 c17 -9 36 -14 42 -12 7 2
-7 14 -30 26 l-43 21 0 151 0 151 24 -6 c13 -3 31 -9 40 -12 9 -3 16 -2 16 4
0 5 -17 14 -37 19 l-38 9 -3 137 -3 137 43 1 c24 1 34 3 23 6 -72 15 -65 0
-65 142 l0 128 43 9 42 8 -42 4 -43 3 0 134 0 134 40 11 c22 6 40 13 40 17 0
3 -18 3 -40 -1 l-40 -6 0 148 0 149 40 18 c22 10 40 22 40 27 0 11 -11 10 -40
-7 -14 -8 -28 -14 -32 -15 -5 0 -8 43 -8 95 l0 95 -57 37 c-32 21 -60 38 -62
40 -2 1 11 14 28 29 42 35 32 43 -13 9 l-35 -26 -123 77 c-68 43 -125 79 -127
81 -2 1 8 18 23 38 33 42 23 46 -19 6 l-30 -29 -117 75 -117 74 21 35 c11 19
18 37 15 41 -4 3 -16 -11 -28 -31 -16 -28 -24 -34 -37 -26 -10 5 -62 38 -117
73 -104 66 -103 64 -91 132 5 28 5 27 -12 -7 -9 -21 -21 -38 -26 -38 -6 0
-217 128 -253 154 -1 1 2 19 7 41 5 22 5 44 1 48 -5 5 -12 -10 -16 -32 -4 -23
-9 -41 -12 -41 -3 0 -70 41 -149 91 l-144 91 0 48 c0 27 -4 52 -10 55 -6 4
-10 -14 -10 -47z m0 -116 l0 -38 -140 -89 c-78 -48 -143 -85 -146 -82 -3 3 -7
19 -7 36 -2 28 7 35 138 120 77 49 143 90 148 90 4 1 7 -16 7 -37z m188 -66
c94 -61 122 -83 122 -99 -1 -56 -13 -53 -151 35 l-134 84 -3 44 c-3 43 -3 43
20 28 13 -8 78 -50 146 -92z m209 -232 c197 -125 435 -275 528 -334 94 -59
213 -135 265 -168 52 -34 125 -79 162 -102 l68 -41 -3 -891 -2 -891 -703 -444
c-387 -244 -707 -443 -711 -441 -4 2 -321 201 -704 443 l-697 440 1 895 0 895
702 442 c546 344 705 439 718 432 10 -5 179 -111 376 -235z m-704 104 c2 -18
4 -34 3 -35 0 0 -55 -35 -121 -77 l-120 -76 -13 31 c-7 17 -11 33 -8 36 10 11
240 153 247 153 4 0 9 -15 12 -32z m767 -44 c114 -72 121 -78 115 -103 -4 -14
-9 -29 -13 -33 -4 -4 -59 26 -122 66 -82 52 -116 79 -118 95 -4 23 3 51 12 51
3 0 59 -34 126 -76z m-1031 -124 c9 -26 7 -32 -12 -44 -12 -8 -62 -40 -112
-71 l-90 -56 -17 22 c-10 12 -18 25 -18 29 0 8 218 150 231 150 4 0 12 -14 18
-30z m1298 -45 l111 -69 -16 -26 c-9 -14 -17 -27 -19 -29 -5 -8 -223 135 -223
147 0 19 20 54 29 50 4 -2 57 -34 118 -73z m-1551 -102 c7 -10 14 -23 14 -29
0 -11 -203 -144 -219 -144 -4 0 -16 9 -26 20 -14 15 -16 23 -7 32 16 16 205
136 216 137 5 1 15 -7 22 -16z m1800 -55 l114 -72 -22 -23 c-12 -13 -25 -23
-29 -23 -6 0 -206 124 -216 134 -6 6 20 56 30 56 5 0 60 -32 123 -72z m368
-243 c-1 -6 -12 -16 -26 -24 -24 -14 -31 -11 -142 58 -64 40 -116 76 -116 79
0 3 9 16 21 28 l21 22 122 -77 c66 -42 121 -81 120 -86z m-2409 135 c11 -12
15 -24 9 -29 -19 -19 -218 -141 -228 -141 -6 0 -22 9 -35 19 l-24 19 69 43
c37 24 91 59 119 76 59 38 66 39 90 13z m-235 -185 c0 -1 -27 -19 -60 -39
l-60 -37 0 -90 0 -90 -30 16 -30 16 0 97 0 97 62 37 61 36 28 -21 c16 -11 29
-22 29 -22z m2800 -131 c0 -93 0 -93 -30 -109 -16 -8 -31 -15 -35 -15 -3 0 -5
40 -5 89 l0 89 -59 38 -59 38 30 22 30 22 64 -40 64 -40 0 -94z m-2920 -289
l0 -144 -30 10 -30 11 0 149 0 150 30 -16 30 -16 0 -144z m2920 26 c0 -146 0
-149 -22 -155 -48 -13 -48 -14 -48 134 l0 139 28 15 c15 8 30 15 35 16 4 0 7
-67 7 -149z m-2942 -177 c21 -6 22 -10 22 -135 l0 -129 -30 0 -30 0 0 135 c0
74 3 135 8 135 4 0 17 -3 30 -6z m2940 -126 l-3 -133 -32 -3 -33 -3 0 130 c0
139 -1 136 53 140 16 1 17 -10 15 -131z m-2934 -154 c13 -5 16 -26 16 -130 l0
-124 -30 0 -30 0 0 130 c0 136 2 140 44 124z m2936 -125 l0 -130 -32 3 -33 3
-3 119 c-3 127 0 136 46 136 22 0 22 -2 22 -131z m-2920 -268 c0 -108 -3 -130
-16 -135 -42 -16 -44 -12 -44 123 0 133 2 138 43 140 15 1 17 -12 17 -128z
m2898 123 c21 -6 22 -10 22 -135 0 -121 -1 -129 -19 -129 -49 0 -51 4 -51 141
0 136 0 135 48 123z m-2898 -414 l0 -139 -30 -16 -30 -16 0 150 c0 134 2 150
18 154 42 11 42 12 42 -133z m2901 130 c17 -10 19 -23 19 -155 0 -80 -2 -145
-5 -145 -4 0 -19 7 -35 15 l-30 16 0 139 c0 150 2 156 51 130z m-2840 -509
l61 -38 -30 -22 -31 -22 -61 38 -60 38 0 97 c0 96 0 98 28 112 l27 14 3 -89 3
-89 60 -39z m2857 91 l-3 -95 -62 -39 c-62 -39 -63 -39 -87 -21 -14 10 -26 21
-26 24 0 3 25 23 55 43 l55 36 0 90 0 90 35 -17 36 -17 -3 -94z m-2662 -214
c63 -39 114 -74 114 -77 -1 -3 -9 -16 -20 -29 l-19 -23 -123 77 c-68 43 -125
79 -127 80 -5 5 42 43 53 44 5 0 60 -32 122 -72z m2494 52 c14 -10 23 -21 20
-23 -3 -3 -59 -39 -125 -80 l-120 -76 -25 25 c-21 21 -23 26 -10 34 8 5 60 38
115 74 55 36 105 65 110 65 6 0 21 -8 35 -19z m-2238 -213 c54 -34 98 -67 98
-72 0 -6 -7 -20 -15 -32 -15 -22 -16 -22 -128 49 -61 39 -114 72 -115 74 -10
7 35 53 47 48 8 -3 59 -33 113 -67z m1970 56 c10 -9 18 -21 18 -27 0 -6 -51
-43 -113 -83 l-112 -71 -17 21 c-10 12 -18 27 -18 32 0 8 205 143 219 145 3 0
13 -7 23 -17z m-1715 -217 c91 -57 91 -57 81 -87 -5 -16 -14 -29 -19 -29 -11
0 -197 116 -217 135 -12 11 -11 17 3 39 16 24 20 25 39 13 11 -8 62 -40 113
-71z m1483 30 c-1 -11 -210 -146 -228 -146 -15 0 -25 51 -12 64 6 6 55 39 108
73 96 61 97 61 115 41 9 -11 17 -25 17 -32z m-1174 -227 c36 -24 40 -32 36
-58 -2 -17 -8 -31 -13 -31 -9 0 -249 149 -249 155 0 1 5 16 11 33 l11 31 81
-51 c45 -28 100 -63 123 -79z m921 67 c-7 -19 -235 -158 -247 -151 -5 3 -10
19 -10 34 0 25 13 37 118 103 l117 75 13 -24 c8 -14 11 -30 9 -37z m-713 -196
l136 -85 0 -42 0 -42 -142 90 c-79 50 -147 94 -152 99 -10 10 2 72 14 68 4 -2
69 -41 144 -88z m442 65 c3 -14 4 -31 1 -38 -4 -10 -188 -132 -274 -181 -10
-5 -13 4 -13 32 l0 40 133 85 c72 47 135 86 139 86 4 1 10 -10 14 -24z"/>
<path d="M1336 3174 c-19 -18 -20 -38 -6 -65 14 -25 56 -25 72 1 13 20 24 20
1071 20 l1059 0 18 -22 c15 -19 22 -21 46 -13 24 9 29 16 29 45 0 29 -5 36
-29 45 -24 8 -31 6 -46 -13 l-18 -22 -1059 0 c-1047 0 -1058 0 -1071 20 -15
24 -45 26 -66 4z m2268 -10 c9 -8 16 -19 16 -24 0 -10 -29 -40 -39 -40 -13 0
-31 24 -31 40 0 16 18 40 31 40 4 0 15 -7 23 -16z m-2206 -21 c4 -30 -31 -49
-52 -27 -18 18 -18 17 -10 39 10 25 58 16 62 -12z"/>
<path d="M2655 2941 c-60 -5 -67 -8 -50 -18 19 -11 20 -24 23 -221 3 -207 3
-211 -19 -231 l-23 -21 99 0 99 0 -22 20 c-18 17 -22 32 -22 80 0 33 4 60 9
60 5 0 23 -30 40 -66 24 -51 29 -70 20 -80 -10 -12 3 -14 75 -14 78 0 103 8
76 25 -5 3 -34 53 -63 111 l-54 105 40 34 c22 19 47 35 54 35 7 0 13 5 13 10
0 6 -34 10 -82 10 l-83 -1 28 -20 c15 -11 27 -28 27 -36 0 -17 -74 -93 -90
-93 -6 0 -10 65 -10 160 0 88 -3 159 -7 158 -5 -1 -39 -4 -78 -7z"/>
<path d="M1425 2889 c11 -7 23 -17 27 -23 4 -6 8 -92 8 -191 0 -99 -4 -185 -8
-191 -4 -6 -16 -16 -27 -22 -27 -15 254 -16 309 -1 55 15 96 59 96 102 0 61
-65 116 -137 117 -24 1 -21 4 25 26 67 33 92 75 72 124 -23 54 -56 64 -230 68
-123 2 -151 0 -135 -9z m213 -8 c18 -11 32 -77 25 -115 -8 -44 -30 -76 -53
-76 -19 0 -20 7 -20 94 0 66 4 96 13 99 18 8 21 8 35 -2z m12 -216 c38 -20 55
-78 40 -134 -13 -48 -30 -63 -67 -59 l-28 3 -3 103 c-3 113 0 117 58 87z"/>
<path d="M1940 2779 c-40 -16 -60 -40 -60 -70 0 -61 91 -74 106 -15 6 27 -10
66 -29 66 -13 0 12 20 26 20 21 0 47 -43 47 -77 0 -51 -6 -58 -70 -83 -72 -28
-100 -55 -100 -95 0 -40 17 -63 55 -73 36 -10 94 3 102 24 4 12 8 11 20 -6 18
-26 113 -29 134 -4 11 14 10 15 -7 12 -18 -3 -19 4 -22 128 -2 125 -4 132 -28
155 -19 18 -38 24 -87 26 -34 2 -73 -2 -87 -8z m86 -265 c-8 -21 -44 -17 -51
6 -8 26 2 60 29 88 l21 24 3 -52 c2 -29 1 -59 -2 -66z"/>
<path d="M2266 2780 c-61 -4 -67 -7 -53 -19 25 -20 25 -266 0 -293 -15 -17
-13 -18 78 -18 81 1 92 2 76 14 -16 12 -18 30 -16 161 0 81 -3 150 -8 154 -4
3 -39 4 -77 1z"/>
<path d="M2394 2781 c-36 -16 -38 -31 -5 -31 l31 0 0 -136 c0 -119 -2 -139
-17 -150 -15 -11 -4 -13 76 -14 89 0 93 1 78 18 -12 13 -16 46 -19 149 -2 107
-6 136 -19 149 -20 19 -95 28 -125 15z"/>
<path d="M3050 2772 c-76 -38 -73 -100 10 -182 63 -62 79 -93 60 -115 -31 -37
-91 0 -105 65 -11 50 -25 33 -25 -30 0 -55 10 -75 25 -50 4 6 19 4 42 -5 118
-49 237 43 175 136 -9 15 -37 43 -62 64 -25 20 -50 47 -57 58 -26 48 38 79 75
37 9 -11 22 -35 29 -53 11 -30 12 -29 12 33 0 41 -3 60 -8 51 -7 -11 -15 -11
-41 -2 -47 16 -90 14 -130 -7z"/>
<path d="M3263 2766 c15 -11 154 -299 172 -356 7 -22 -34 -70 -60 -70 -12 0
-11 4 5 20 25 25 25 42 2 63 -38 35 -102 14 -102 -32 0 -37 20 -52 74 -58 69
-8 83 13 152 221 33 98 67 186 77 196 9 11 17 22 17 25 0 3 -25 5 -55 5 -58 0
-68 -7 -35 -28 25 -15 26 -65 2 -142 l-18 -55 -41 100 -42 100 22 12 c18 10 5
12 -83 12 -90 0 -102 -2 -87 -13z"/>
<path d="M1330 2239 c-26 -48 53 -96 82 -49 13 20 24 20 1068 20 1019 0 1056
-1 1067 -19 17 -28 51 -33 74 -10 22 22 25 49 7 67 -17 17 -63 15 -78 -3 -11
-13 -142 -15 -1070 -15 -931 0 -1059 2 -1064 15 -9 24 -73 20 -86 -6z m74 -11
c8 -14 7 -21 -6 -34 -30 -30 -75 9 -48 42 16 18 39 15 54 -8z m2211 -13 c0
-38 -37 -48 -55 -15 -14 27 4 52 34 48 16 -2 21 -10 21 -33z"/>
</g>
</svg>
